<?xml version="1.0" encoding="UTF-8" standalone="no"?>
<svg
   xmlns:dc="http://purl.org/dc/elements/1.1/"
   xmlns:cc="http://creativecommons.org/ns#"
   xmlns:rdf="http://www.w3.org/1999/02/22-rdf-syntax-ns#"
   xmlns:svg="http://www.w3.org/2000/svg"
   xmlns="http://www.w3.org/2000/svg"
   xmlns:sodipodi="http://sodipodi.sourceforge.net/DTD/sodipodi-0.dtd"
   xmlns:inkscape="http://www.inkscape.org/namespaces/inkscape"
   width="487.09393"
   height="799.99951"
   id="svg2"
   version="1.1"
   inkscape:version="0.91 r13725"
   sodipodi:docname="NorfolkIslandPine.svg">
  <metadata
     id="metadata14">
    <rdf:RDF>
      <cc:Work
         rdf:about="">
        <dc:format>image/svg+xml</dc:format>
        <dc:type
           rdf:resource="http://purl.org/dc/dcmitype/StillImage" />
        <dc:title></dc:title>
      </cc:Work>
    </rdf:RDF>
  </metadata>
  <defs
     id="defs12" />
  <sodipodi:namedview
     pagecolor="#ffffff"
     bordercolor="#666666"
     borderopacity="1"
     objecttolerance="10"
     gridtolerance="10"
     guidetolerance="10"
     inkscape:pageopacity="0"
     inkscape:pageshadow="2"
     inkscape:window-width="1600"
     inkscape:window-height="837"
     id="namedview10"
     showgrid="false"
     fit-margin-top="0"
     fit-margin-left="0"
     fit-margin-right="0"
     fit-margin-bottom="0"
     inkscape:zoom="0.83750051"
     inkscape:cx="243.54697"
     inkscape:cy="399.99976"
     inkscape:window-x="-8"
     inkscape:window-y="-8"
     inkscape:window-maximized="1"
     inkscape:current-layer="svg2" />
  <path
     style="fill:#007934"
     inkscape:connector-curvature="0"
     d="m 250.2093,0 c -1.613,17.45781 -3.2293,34.92447 -4.8423,52.38266 -5.9122,0.89084 -11.8227,1.77774 -17.735,2.66847 0,0 12.3174,6.91649 14.4681,13.86407 0.3441,1.11272 0.2076,2.03367 -0.2916,2.72644 -0.1637,0.2166 -0.4145,0.45723 -0.6417,0.63811 -3.5681,2.74208 -14.1182,1.45023 -14.1182,1.45023 0,-5e-5 13.9761,11.79271 15.0515,16.0684 0.023,0.10011 0.055,0.1933 0.058,0.29029 0,0.08 0.023,0.21221 0,0.28988 -0.023,0.0616 -0.092,0.17161 -0.1177,0.23218 -0.095,0.20991 -0.2676,0.44629 -0.4668,0.63809 -3.2858,3.03514 -18.7853,3.88658 -18.7853,3.88658 0,0 17.1849,12.25344 18.2603,19.20082 0.9743,6.29632 0.1568,9.98412 0,10.61554 -1.2009,-1.02578 -28.9132,-24.31393 -46.7887,-17.51858 -0.8904,0.46252 -1.4172,0.90325 -1.6334,1.33418 -0.094,0.21497 -0.1153,0.48291 -0.058,0.69612 1.2523,3.87373 26.5302,7.84195 44.1628,23.08839 -0.4373,3.81538 -50.2544,-12.13631 -52.0958,-2.14637 1.5581,2.81691 53.6122,10.31967 57.4633,17.11262 -19.1706,0.71284 -58.7751,-4.21914 -57.4633,2.0884 -4.0062,7.28216 37.4058,3.16911 54.7796,9.1074 5.0928,5.75454 4.6012,10.58865 -4.2588,11.19559 -16.7457,-7.96148 -54.2239,-13.87752 -54.3143,-3.71248 9e-4,0.0115 0,0.0478 0,0.0579 0,0.0115 0.055,0.0482 0.058,0.0579 0.023,0.0321 0.032,0.087 0.058,0.11603 0.06,0.0572 0.1938,0.12086 0.2918,0.17415 4.232,2.11108 39.1325,1.08133 52.2723,9.74543 -18.6293,4.21372 -81.7993,-8.5482 -82.2004,-2.32028 1.7997,2.90878 11.7952,15.67489 28.9953,15.14014 17.1994,-0.53458 56.9919,6.9536 59.6817,12.29777 0.083,0.167 0.083,0.3383 0.058,0.4641 -1.1646,3.72713 -52.4026,-11.36931 -72.1072,-2.0884 -20.4229,9.62106 58.5643,3.78869 71.4655,15.54632 12.8999,11.7576 -25.7863,-1.10216 -25.7863,-1.10216 2e-4,0 -53.7204,-7.45283 -61.7816,-3.71248 -8.0631,3.74217 -17.21,12.29777 -17.21,12.29777 0,0 5.3597,10.66387 10.7344,8.52733 0.8188,-0.32591 1.3784,-0.39238 1.6919,-0.28988 0,0.005 0.051,-0.005 0.058,0 0,0.005 0.051,0.054 0.058,0.0579 0,0.007 0.049,0.0482 0.058,0.0579 0,0.0115 0.048,0.0468 0.058,0.0579 0,0.005 0.055,0.0517 0.058,0.0579 0.023,0.0535 0.049,0.16654 0.058,0.23223 0.1268,1.60323 -3.6754,6.26503 -3.6754,6.26503 0,0 75.2804,18.13434 91.9424,34.16625 16.6615,16.03452 -95.6752,-25.11825 -95.6752,-25.11825 0,-2e-5 -45.149903,16.56525 2.6835,17.63452 -5.3316,7.75592 2.2084,12.52963 2.6835,12.81988 0,0 79.5648,16.5835 87.6261,29.4106 8.063,12.82689 -54.2821,-12.31263 -68.2563,-19.25881 -13.4823,-6.70388 -51.0108,3.54539 -53.147,6.671 -0.023,0.024 -0.048,0.092 -0.058,0.11625 0,0.0115 0,0.0466 0,0.0579 0,0.024 0,0.0948 0,0.11602 0,0.0115 0,0.0477 0,0.0579 0,0.0115 0,0.0477 0,0.0579 0,0.0115 0.053,0.0473 0.058,0.0579 0,0.0115 0,0.0473 0,0.0579 0.023,0.0429 0.083,0.13101 0.1177,0.17415 0,0.0115 0.048,0.0473 0.058,0.0579 2.4043,2.63418 19.1559,6.26182 19.6604,10.78965 0,0.0208 0,0.0401 0,0.0579 0,0.2418 -0.067,0.52792 -0.1753,0.75413 -2.1101,4.0683 -22.0955,5.79888 -22.9279,9.62948 -0.023,0.0655 -0.058,0.16539 -0.058,0.23223 0,4.2769 100.5393,25.12026 127.4125,47.56681 26.8732,22.44655 -78.9912,-26.74291 -78.9912,-26.74291 0,0 5.9124,8.01304 0,10.15159 -5.9123,2.13655 -26.9154,-29.92606 -61.314203,-10.15159 -6.2653,8.13599 30.034203,14.59357 39.262803,15.48815 -3.1513,8.05636 -5.8992,10.72142 7.0006,18.73688 1.4108,0.87689 2.2029,1.40663 2.5087,1.68228 0,0.007 0.051,0.0498 0.058,0.0581 l 0.058,0.0581 c 0,0.005 0,0.053 0,0.0581 0,0.005 0,0.0554 0,0.0581 0,8e-4 -0.051,-2.4e-4 -0.058,0 0,-4e-4 -0.048,9.6e-4 -0.058,0 -1.998,-0.31089 -25.1723,-12.15315 -27.5954,-12.64596 -0.023,-0.005 -0.099,10e-4 -0.1176,0 0,4.3e-4 -0.053,-0.001 -0.058,0 0,1.06914 2.6835,13.92203 2.6835,13.92203 -11.9086,-9.61926 -26.303703,-12.5196 -39.786403,-2.66829 -0.023,0.5699 -0.1199,9.79318 13.4182,15.48836 -7.6299,15.50178 8.621903,10.68873 34.420903,25.11825 -38.342203,-9.96448 -41.413303,8.54497 -14.0012,12.81985 27.4118,4.27491 102.6752,6.95361 120.4123,29.93209 3.7413,4.84755 4.7565,7.28495 4.0253,8.06321 -2.9583,2.66586 -30.1747,-16.90763 -34.1283,-17.63452 0,0.005 -0.051,-0.007 -0.058,0 0,0.007 -0.051,0.0489 -0.058,0.0581 -0.051,0.0625 -0.1246,0.1866 -0.1753,0.29003 -0.9658,2.12612 -1.8668,11.3697 -1.8668,11.3697 -11.4663,-6.59916 -21.9873,-12.51879 -35.7028,-15.31423 -1.0751,2.13655 -0.8497,5.17247 -1.9251,7.30901 -12.4463,-8.92487 -23.2889,-15.1997 -41.363,-16.0684 -0.7167,2.85118 -1.4417,5.73408 -2.1586,8.58529 0,-5e-5 -15.0676,-18.7056 -44.630303,0 -16.5068,11.76683 62.357303,4.26065 75.256503,18.15662 12.8998,13.89415 2.6837,16.01044 2.6837,16.01044 -10.7494,-3.91867 -21.4538,-7.79903 -32.2027,-11.7177 0,0 -38.197803,-6.98389 -48.946703,1.56623 -10.7494,8.5518 156.937303,29.40054 161.773203,52.38265 3.2613,12.46304 -39.3973,-13.05053 -76.3074,-24.01507 -1.4278,4.07954 -2.8893,8.16027 -4.3171,12.23981 -0.8753,-0.86109 -15.1532,-14.67001 -31.1536,-17.05447 0,0.007 -0.055,0.0445 -0.058,0.0581 0,0.0208 5e-4,0.09 0,0.11626 0.023,1.75396 3.2671,14.27003 3.2671,14.27003 0,5e-5 -41.345003,-19.2612 -62.305103,-9.10739 -20.9623,10.1538 73.076203,15.49656 81.674903,25.11826 0.9404,1.0521 1.3318,1.81906 1.2834,2.32047 -0.023,0.0867 -0.076,0.21867 -0.1177,0.28962 -2.0771,3.0249 -30.1207,-8.14703 -32.9027,-2.6103 -3.2258,6.41343 -48.900603,-11.74038 -48.363003,-3.19058 0.5377,8.5518 6.4757,13.34196 6.4757,13.34196 0,0 95.133603,9.07993 98.358803,20.30239 3.2242,11.22309 -52.6794,-6.38093 -52.6794,-6.38093 0,0 -5.4079,7.97733 -1.1086,11.7177 0.1684,0.14601 0.3022,0.28602 0.35,0.3478 0,0.005 -5e-4,0.0549 0,0.0581 0,-10e-4 -0.051,0.002 -0.058,0 -1.9431,-0.63737 -32.232703,-20.36459 -29.286203,-5.22084 -11.8529,-4.69269 -42.4543,-19.2281 -38.1538,-8.00522 4.2361,11.058 84.051703,26.80309 86.400503,27.26441 -2.1108,0.16539 -35.865103,2.97337 -34.3026,11.77588 -45.240303,-27.40482 -45.133903,-10.97075 -44.104903,-9.68747 0,0.002 0,0.0565 0,0.0581 -2.5415,-0.39955 -58.1994002,-14.18679 -13.9432,9.62951 23.7344,12.77153 29.5189,17.75045 29.6373,19.66495 7e-4,0.0422 0,0.13471 0,0.17416 0,0.051 -0.042,0.12847 -0.058,0.17415 0,0.0115 -0.053,0.0473 -0.058,0.0581 -0.023,0.0321 -0.037,0.087 -0.058,0.11602 0,0.007 -0.051,0.0489 -0.058,0.0581 0,0.007 -0.048,0.0498 -0.058,0.0581 0,0.007 -0.048,0.05 -0.058,0.0581 -0.023,0.007 -0.049,0.0505 -0.058,0.0581 -0.9201,0.58529 -3.1435,0.34018 -3.7921,0.34782 -0.028,9.9e-4 -0.097,-0.002 -0.1176,0 -0.023,0.005 -0.055,0.0521 -0.058,0.0581 l 0.058,0.0581 c 0.6315,0.9334 4.1037,10.359 3.9085,12.00774 0,0.0281 -0.051,0.0946 -0.058,0.11602 0,0.007 0,0.0498 0,0.0581 0,0.005 -0.055,-0.005 -0.058,0 0,0.002 0,0.0563 0,0.0581 0,0.001 -0.055,-7.4e-4 -0.058,0 0,-4.8e-4 -0.053,9.4e-4 -0.058,0 -1.9394,-0.48585 -31.2519,-16.06181 -41.3047,-17.11243 -10.2135,-1.06927 -58.5986,13.34519 -7.0008,35.79093 51.5977,22.44576 83.291603,-5.354 111.777603,-2.14637 28.4858,3.20583 41.9487,8.02609 39.2628,17.11262 -2.6884,9.08472 -29.1397,-29.78566 -56.9397,3.82862 -31.623003,-6.22231 -53.076803,-9.82306 -36.753703,13.284 -51.6425,-19.19018 -83.1793002,5.85465 -18.1435,16.01045 63.907803,1.87294 103.200903,-15.48835 103.200903,-15.48835 0,5e-5 10.781,19.81297 26.3699,5.91682 14.8556,-13.2429 16.0242,3.61138 16.5681,5.22081 0,0.024 0.051,0.0445 0.058,0.0581 0,0.005 0,0.0558 0,0.0581 0,0 0.053,7.9e-4 0.058,0 1.1478,-0.28683 14.9931,-6.43892 14.9931,-6.43892 1.2546,5e-5 2.5376,0 3.7921,0 l 0,128.25688 c 17.3787,0.17807 34.7179,0.34378 52.0961,0.52208 0,0 -16.6622,-111.66916 -7.5257,-126.6322 8.8527,-14.49588 17.2221,-12.93117 17.7348,-12.81985 0,0 33.8676,10.13112 37.6284,8.52732 0.044,-0.0208 0.1338,-0.0362 0.1753,-0.0581 0.028,-0.0162 0.09,-0.0422 0.1176,-0.0581 0.065,-0.0413 0.173,-0.12594 0.2334,-0.17415 0,-0.007 0.046,-0.0482 0.058,-0.0581 2.7523,-2.49838 -0.051,-12.35735 17.1517,-10.84761 5.3119,-1.92129 3.2851,-10.34154 6.7091,-12.41389 0.06,-0.036 0.1706,-0.0851 0.2334,-0.11603 0.1292,-0.0607 0.3229,-0.13032 0.4666,-0.17415 0.2007,-0.0574 0.4692,-0.0927 0.7001,-0.11602 5.3747,-0.53459 109.0978,28.83493 131.6707,1.04416 -5.9123,-15.49797 -26.3618,-1.05669 -31.7374,-0.5221 -4.837,4e-5 -25.2766,-9.61927 -37.1027,0 -10.7491,-8.01546 -59.6235,-13.34199 -59.6235,-13.34199 -6.4498,-6.41343 116.6336,3.18537 123.6197,-1.62421 14.511,-14.43072 -26.8612,-12.81485 -33.312,-8.00522 -11.466,-6.948 -25.8744,-6.43392 -34.6534,-1.6242 -4.2099,-10.0128 -44.1751,-5.67614 -66.3891,-8.52732 -7.1109,-4.14694 -5.9269,-6.52718 -1.1084,-9.1074 46.4014,1.9602 92.5683,7.98476 139.1964,5.91681 12.603,-16.33698 -15.8659,-22.4987 -33.3119,-8.58529 -10.2417,-16.74736 -31.1797,-0.54436 -45.1538,-2.14637 -13.9733,-1.60385 -7.5258,-18.68154 10.2094,-16.01046 17.7369,2.67309 49.4522,-1.09011 55.3632,-9.10737 5.9105,-8.01546 -3.5294,-16.13622 -32.7863,-8.52733 -9.9019,-9.62288 -31.6752,-0.0162 -41.8885,3.19056 -13.587,-7.53647 -45.198,-1.04876 -55.9469,1.62424 -10.5236,-6.50429 55.3631,-17.11241 55.3631,-17.11241 25.4313,-0.44737 39.7765,-4.82266 47.8377,-6.96103 38.4466,-20.48893 -0.5353,-22.66517 -20.7096,-7.77315 -12.5227,-9.72135 -24.4162,0.84049 -35.7025,4.58277 -10.5817,3.50669 -30.1508,6.06085 -32.5538,5.04674 -0.028,-0.0115 -0.095,-0.0438 -0.1176,-0.0581 0,-0.005 -0.053,-0.053 -0.058,-0.0581 l -0.058,-0.0581 c 0,-0.005 0,-0.0521 0,-0.0581 0,-0.005 -9e-4,-0.0514 0,-0.0581 0,-0.024 0.042,-0.0883 0.058,-0.11603 1.5851,-2.44362 30.57,-20.1299 30.57,-20.1299 0,-5e-5 37.6282,-2.70137 45.1538,-3.77045 4.5856,-0.65158 20.6575,-8.21662 20.6515,-11.0217 -0.1338,-1.74112 -6.8309,-1.58122 -27.1281,3.53859 -18.2745,1.60378 -29.0075,0.5675 -35.9955,1.10209 -11.2379,-1.15526 -15.9725,-2.33312 -16.9182,-3.36448 -0.037,-0.0438 -0.095,-0.13079 -0.1176,-0.17415 -0.079,-0.18615 -0.028,-0.40138 0.1176,-0.5801 0.037,-0.0413 0.1269,-0.13309 0.1753,-0.17415 2.7546,-2.18771 20.535,-3.77066 20.535,-3.77066 0,4e-5 54.2821,-4.94983 57.8723,-7.77315 0,-0.0115 0.046,-0.0471 0.058,-0.0581 0.023,-0.024 0.046,-0.0939 0.058,-0.11603 0,-0.0115 0.055,-0.0473 0.058,-0.0581 1.1171,-22.06745 -46.0503,-11.87755 -47.312,-11.7177 0.1338,-15.51721 -42.5703,-0.22789 -44.5702,0 0,-5.5e-4 -0.055,0.001 -0.058,0 -1.8372,-1.07637 -2.6381,-2.21215 -2.8002,-3.24852 -0.053,-0.39515 0,-0.83978 0.1176,-1.21821 1.0698,-3.1996 7.5256,-5.68474 7.5256,-5.68474 11.8248,-2.84939 29.5049,-3.73894 34.1283,-7.48312 0,0 33.374,-0.29204 37.3373,-9.1074 -8.1897,-22.46661 -70.6292,3.97706 -78.9912,8.00522 -1.6753,0 -2.7013,-0.41851 -3.2085,-1.10215 -2.7456,-3.98868 10.8036,-17.12346 11.2594,-17.57655 0,-0.005 0.048,-0.0537 0.058,-0.0581 2.0649,-0.58243 51.9173,-3.11878 75.7238,-35.21128 1.6802,-19.84367 -28.4698,11.1956 -28.4698,11.1956 -2.2515,-25.73602 -32.7844,1.63217 -50.5213,3.77065 -17.7353,2.13655 -18.2547,-8.02547 -5.8925,-9.6295 12.3603,-1.60196 26.3237,-0.55318 33.3119,-19.25878 6.9859,-18.7056 27.9744,1.08921 31.7372,-5.85885 3.6443,-6.73097 -6.8671,-12.46847 -7.5256,-12.81988 0,0 15.576,-16.08084 -9.6842,-15.5463 -25.006,0.52923 -57.3351,-3.11617 -57.9888,-3.19037 1.5681,-0.59521 27.0377,-10.1474 50.9886,-9.62951 24.7251,0.53459 11.2813,-17.63472 -12.3679,-17.63472 -23.6481,0 -35.9957,-8.00522 -35.9957,-8.00522 13.4377,-4.98775 26.8755,-9.9785 40.3121,-14.96625 -0.8961,-3.74035 -1.7876,-7.45523 -2.6838,-11.1956 0,0 23.64,-18.71902 -9.6841,-14.44414 -33.324,4.27692 -37.1029,4.81466 -37.1029,4.81466 0,0 -65.5986,9.99534 -67.1491,10.15159 0,0 -0.053,6.9e-4 -0.058,0 -0.6348,-0.099 -7.1324,-2.10626 -8.3424,-4.58277 -0.037,-0.0812 -0.092,-0.20783 -0.1177,-0.28988 -0.028,-0.099 -0.048,-0.24785 -0.058,-0.34793 0,-0.11695 -0.023,-0.28745 0,-0.40604 0.2708,-1.30505 2.2942,-2.71622 7.4675,-4.00252 17.1994,-4.27509 77.9642,-16.54959 87.1006,-13.34196 1.178,0.41321 2.0379,0.31989 2.567,-0.11625 3.4258,-3.08247 -7.9717,-22.74141 -35.9374,-25.52342 -32.2488,-3.2058 -52.0957,8.00522 -52.0957,8.00522 0,0 -20.9844,-7.50857 -1.6336,-13.92203 19.348,-6.41164 49.9958,2.14637 49.9958,2.14637 -2e-4,0 34.3788,-10.16924 5.8921,-14.44415 -28.486,-4.27689 -37.4678,3.84528 -50.5213,4.29277 -5.2104,-6.46721 44.7227,-7.99401 47.8375,-13.34199 -5.2662,-9.62286 -36.1599,0 -54.2559,0 -7.697,-3.24654 -8.2063,-8.52913 0.525,-11.77567 18.454,-0.71279 35.801,0.36473 54.2561,-0.34791 -0.5376,-9.79738 0.023,-21.41158 -0.5252,-31.20776 -23.4072,-4.25284 -50.8562,3.11437 -63.998,2.49437 3.5153,-10.69035 54.0534,-13.44968 59.6816,-16.35844 11.6119,-14.4321 -48.4734,-0.22305 -49.9374,0 -10.6655,-1.56674 -10.0196,-8.26979 -3.2672,-12.29778 15.5862,-1.78199 50.5395,2.27114 47.8959,-8.23729 -2.0254,-9.8469 -24.2337,-4.57474 -33.3701,-2.4364 -9.1363,2.13654 -22.5768,0.52206 -22.5768,0.52206 -5.8508,-7.83252 52.6916,-4.63112 52.156,-10.67349 -0.7635,-6.93736 -37.1087,-2.15882 -49.4723,-1.62428 -9.5081,-6.52316 44.7005,-10.86024 47.2537,-11.7177 0,-0.007 0.051,-0.0519 0.058,-0.0581 2.0257,-17.76611 -37.6281,0 -45.1537,0 -1.2934,0 -2.2723,-0.32108 -2.9754,-0.87016 -0.1568,-0.12686 -0.3349,-0.3163 -0.4668,-0.46404 -2.5835,-2.99683 -0.2916,-9.86156 -0.2916,-9.86156 0,0 14.1311,-6.31397 14.9931,-7.83113 0,-0.0115 0.055,-0.0464 0.058,-0.0581 0,-0.005 0,-0.0526 0,-0.0581 -2e-4,-0.005 7e-4,-0.0533 0,-0.0581 0,-0.007 -0.053,-0.0494 -0.058,-0.0581 -0.032,-0.0447 -0.1107,-0.12179 -0.1753,-0.17415 -1.6587,-1.27018 -11.3786,-4.47628 -12.6595,-4.5828 0,-4.4e-4 -0.051,0 -0.058,0 0,-0.002 -0.051,-0.0535 -0.058,-0.0581 -0.023,-0.0115 -0.044,-0.0408 -0.058,-0.0581 0,-0.007 -0.051,-0.0468 -0.058,-0.0581 -0.7319,-1.49403 0.1753,-12.12388 0.1753,-12.12388 0,0 11.1973,-8.34339 11.9013,-11.65973 0,-0.0282 0,-0.0893 0,-0.11603 0,-0.0281 0,-0.0904 0,-0.11602 7e-4,-0.024 9e-4,-0.0913 0,-0.11603 0,-0.024 0,-0.0925 0,-0.11602 0,-0.0115 0,-0.0468 0,-0.0581 0,-0.0321 -0.046,-0.0849 -0.058,-0.11602 0,-0.0115 0,-0.0478 0,-0.0581 0,-0.007 -0.053,-0.048 -0.058,-0.0581 0,-0.0208 -0.046,-0.0401 -0.058,-0.0581 -0.023,-0.0281 -0.037,-0.0913 -0.058,-0.11602 0,-0.007 -0.048,-0.0501 -0.058,-0.0581 -0.044,-0.0362 -0.1222,-0.0833 -0.1753,-0.11603 -0.023,-0.0115 -0.092,-0.0461 -0.1176,-0.0581 -2.8279,-1.35015 -14.5263,2.66847 -14.5263,2.66847 -2e-4,-3.56285 0,-7.11066 0,-10.67372 -2e-4,0 10.2424,-1.10706 11.3178,-5.91681 0.062,-0.28185 0.032,-0.5589 0,-0.81212 -0.023,-0.10057 -0.028,-0.25186 -0.058,-0.34793 -0.067,-0.20668 -0.1661,-0.45116 -0.292,-0.63809 -0.023,-0.0281 -0.095,-0.0881 -0.1177,-0.11602 -2.3435,-3.00806 -11.9013,-3.42245 -11.9013,-3.42245 C 253.7823,37.39054 251.9995,18.706 250.207,0.00219 Z m -9.5677,183.19088 0,7.36718 c 2e-4,0 -12.0531,-0.61389 -14.2931,-2.49437 0,-0.007 -0.048,-0.0489 -0.058,-0.0579 0,-0.007 -0.048,-0.0484 -0.058,-0.0579 0,-0.007 -0.051,-0.0487 -0.058,-0.0579 0,-0.007 -0.051,-0.0487 -0.058,-0.0579 -0.023,-0.0281 -0.044,-0.0865 -0.058,-0.11625 0,-0.007 0,-0.0482 0,-0.0579 0,-0.007 -0.055,-0.0482 -0.058,-0.0579 0,-0.007 0,-0.0482 0,-0.0579 0,-0.0208 3e-4,-0.0953 0,-0.11602 5e-4,-0.0115 -9e-4,-0.0478 0,-0.0579 0,-0.0115 0,-0.0473 0,-0.0579 0.023,-0.0429 0.037,-0.13009 0.058,-0.17415 0,-0.0115 0.053,-0.0471 0.058,-0.0579 0.028,-0.045 0.078,-0.12848 0.1176,-0.17415 0,-0.0115 0.046,-0.0466 0.058,-0.0579 0.023,-0.024 0.09,-0.0925 0.1176,-0.11626 0.081,-0.0708 0.1869,-0.15846 0.2918,-0.2322 4.0438,-2.81511 12.1177,-2.74873 13.7095,-3.19038 0,-0.005 0.046,0.005 0.058,0 0.023,-0.005 0.048,-0.0535 0.058,-0.0579 0,-0.005 0.051,0.005 0.058,0 0,-0.005 0.053,-0.053 0.058,-0.0579 z m 17.0935,9.80338 c 0.4164,0 24.0091,0.20183 26.077,3.24855 0.023,0.024 0.046,0.0897 0.058,0.11602 0.023,0.0401 0.048,0.13332 0.058,0.17415 0,0.0281 0,0.0881 0,0.11626 -2e-4,0.0422 0,0.13147 0,0.17415 0,0.0434 -0.039,0.12986 -0.058,0.17415 -1.8015,3.80534 -25.6699,6.09092 -25.6699,6.09092 l -0.4666,-10.09342 z m -1.342,14.5601 c 0,0.005 0.051,-0.005 0.058,0 0,0.005 0.046,-0.005 0.058,0 1.4008,0.36793 11.1724,0.6829 12.3679,2.32026 0.023,0.0161 0.049,0.0424 0.058,0.0579 0,0.007 0,0.05 0,0.0579 0,0.0161 0.053,0.0417 0.058,0.0579 0,0.007 0,0.0501 0,0.0579 0.001,0.007 -4e-4,0.0498 0,0.0579 3e-4,0.007 5e-4,0.0496 0,0.0579 -6e-4,0.007 0,0.0494 0,0.0579 0,0.007 0,0.0494 0,0.0579 0,0.007 -0.055,0.0489 -0.058,0.0579 0,0.007 0,0.0489 0,0.0579 -0.023,0.0281 -0.039,0.0881 -0.058,0.11625 0,0.007 -0.051,0.0484 -0.058,0.0579 0,0.007 0,0.0484 0,0.0579 -2.0255,2.46148 -11.0428,3.13262 -11.4929,3.13262 0,-8.1e-4 -0.055,0.001 -0.058,0 0,-0.002 0,-0.0551 0,-0.0579 0,-0.0115 -0.051,-0.0454 -0.058,-0.0579 -0.4122,-0.83221 -0.8168,-6.14889 -0.8168,-6.14889 z m -71.9328,19.37491 c 7.7032,-0.39794 22.9902,1.4059 51.6887,9.28148 0,0.60732 0.581,8.00663 0.3499,9.22333 0,0.007 -0.055,0.0494 -0.058,0.0579 0,0.007 0,0.0524 0,0.0579 0,0.005 -0.051,0.0572 -0.058,0.0579 -0.4501,-0.22466 -52.2123,-15.01496 -56.94,-14.79214 -0.1292,0.005 -0.2856,0.0115 -0.4083,0 -0.1038,-0.0115 -0.2519,-0.036 -0.3497,-0.0579 -0.1291,-0.0321 -0.2952,-0.12248 -0.4085,-0.17415 -0.042,-0.0208 -0.1361,-0.0362 -0.1753,-0.0579 0,-0.007 -0.046,-0.0501 -0.058,-0.0579 -0.1569,-0.10611 -0.3133,-0.26704 -0.4083,-0.40604 0,-0.0115 -0.051,-0.0471 -0.058,-0.0579 -0.023,-0.024 -0.048,-0.0932 -0.058,-0.11603 0,-0.0115 0,-0.0461 0,-0.0579 0,-0.024 -0.053,-0.092 -0.058,-0.11603 0,-0.0115 0,-0.0457 0,-0.0579 0,-0.024 7e-4,-0.0909 0,-0.11603 5e-4,-0.024 0,-0.0904 0,-0.11602 0,-0.0644 0.037,-0.16608 0.058,-0.23223 0.064,-0.15847 0.1937,-0.36272 0.3499,-0.52206 0.7914,-0.76977 2.7737,-1.5431 6.5923,-1.74029 z m 26.8352,21.8689 c 8.251,-0.2943 28.0186,4.43476 29.1117,4.1766 0,1.56738 0.8747,8.97583 -0.1176,10.49961 0,0.0115 -0.048,0.0461 -0.058,0.0579 0,0.0115 -0.048,0.0482 -0.058,0.0579 -0.023,0.007 -0.048,0.0503 -0.058,0.0579 -0.023,0.0115 -0.095,0.0489 -0.1176,0.0579 -0.023,0.005 -0.046,-0.002 -0.058,0 -0.023,0.002 -0.09,0.002 -0.1176,0 0,-0.002 -0.044,0.005 -0.058,0 -1.6801,-0.41764 -30.8526,-9.63091 -31.9699,-13.39995 -0.023,-0.062 0,-0.173 0,-0.23223 0,-0.13148 0.076,-0.29186 0.1753,-0.40604 0,-0.0115 0.044,-0.0461 0.058,-0.0579 0,-0.0115 0.044,-0.0461 0.058,-0.0579 0.56,-0.4414 1.7157,-0.70087 3.2085,-0.75411 z m 81.2075,20.30239 c 7.8793,-0.15316 13.4422,0.51754 11.3761,2.90034 -5.6265,6.48946 -44.512,11.83384 -44.512,11.83384 L 258.667,272.0009 c 0.8353,-0.12225 20.5934,-2.64301 33.8374,-2.90034 z m -111.31,36.89411 c 6.6124,-0.34994 22.0112,3.26077 56.298,17.69269 l 0.2334,8.52732 c 0,0 -58.0631,-17.51037 -60.089,-20.41874 -0.9969,-1.43168 -2.85,-5.46151 3.5587,-5.80088 z m 113.7611,12.70392 c 1.7666,-0.0893 3.0099,0.0886 3.4419,0.52206 0.023,0.0115 0.049,0.0457 0.058,0.0579 0.023,0.0401 0.044,0.13171 0.058,0.17415 0,0.0438 0.06,0.12663 0.058,0.17415 -0.023,0.24462 -0.2076,0.57412 -0.525,0.92814 -5.4028,6.04399 -34.4209,12.06571 -34.4209,12.06571 0,0 -3e-4,-7.60647 0,-7.83112 0,3.9e-4 0.053,-7e-5 0.058,0 1.3226,-0.045 22.623,-5.65386 31.2699,-6.09092 z m -127.296,1.04415 c 8.6683,-0.45702 28.241,4.11464 72.1072,24.76923 0,0.21429 0.3908,7.3377 0.2332,8.00524 0,-8.5e-4 -0.053,0.002 -0.058,0 -2.6007,-0.83352 -78.933,-27.49507 -78.933,-27.49507 -0.081,-0.2923 -1.2296,-4.86319 6.6507,-5.2788 z M 312.98,353.09867 c 2.2182,-0.0927 3.6735,0.0983 4.0253,0.58007 0.032,0.0558 0.055,0.1677 0.058,0.23228 0,0.23186 -0.2007,0.52739 -0.5833,0.87009 -6.922,6.21589 -51.0528,13.74654 -52.6213,13.86409 0,0 -0.051,8.8e-4 -0.058,0 0,-0.002 -0.053,0.005 -0.058,0 0,-0.005 -0.053,-0.0526 -0.058,-0.0581 -0.023,-0.0208 -0.046,-0.0879 -0.058,-0.11602 0,-0.0115 0,-0.0473 0,-0.0581 0,-0.024 -0.053,-0.09 -0.058,-0.11602 -0.2805,-1.44075 0.6329,-6.48626 0.7001,-7.1931 4e-4,-0.0115 0,-0.051 0,-0.0581 0,0.002 0.053,-0.002 0.058,0 0,0.001 0.048,0.0574 0.058,0.0581 0.023,5.7e-4 0.046,-1.4e-4 0.058,0 2.8247,-0.0468 36.6452,-7.51079 48.5375,-8.00522 z m -129.7452,19.43291 c 13.1381,-0.67488 52.9462,17.47566 54.8979,18.04067 0,10e-4 0.055,-1.2e-4 0.058,0 -0.2052,0.81085 -0.2382,7.36397 -0.4082,8.41118 0,0.0282 0,0.1008 0,0.11603 0,0.005 -0.058,-0.002 -0.058,0 -1.0733,-0.57154 -55.6321,-23.08641 -58.0469,-21.28924 -1.5051,-3.54641 0.055,-5.09886 3.5587,-5.27878 z m 117.3777,4.75667 c 2.7336,-0.11948 4.7346,10e-4 5.367,0.34779 0.076,0.0482 0.1477,0.11557 0.1754,0.17415 0,0.007 0,0.0477 0,0.0581 4e-4,0.0115 0,0.0473 0,0.0581 0,0.024 0,0.0927 0,0.11602 0,0.0115 -0.051,0.0457 -0.058,0.0581 -0.039,0.051 -0.1107,0.11787 -0.1753,0.17415 -4.0509,3.5807 -41.6537,10.96355 -41.6537,10.96355 0,0 -0.1753,-6.92715 -0.1753,-7.59907 1.068,-0.22697 25.3428,-3.86029 36.521,-4.3507 z m -3.0337,23.95691 c 2.6457,-0.0874 4.5214,0.0625 4.9588,0.52206 l 0.058,0.0581 c 0.023,0.0208 0,0.0946 0,0.11602 0,0.0115 0.058,0.0468 0.058,0.0581 -7e-4,0.0115 -0.055,0.0466 -0.058,0.0581 0,0.024 0.023,0.0907 0,0.11603 0,0.0115 -0.051,0.045 -0.058,0.0581 -0.032,0.0526 -0.069,0.11949 -0.1177,0.17416 -0.037,0.0413 -0.1291,0.13193 -0.1753,0.17415 -4.0587,3.48322 -35.9373,10.1514 -35.9373,10.1514 0,0 -0.8751,-7.60647 -0.8751,-7.83111 0.8843,0.0208 22.1978,-3.32617 32.1445,-3.65452 z m -134.5291,1.91425 c 7.6917,-0.48354 26.7509,2.66788 73.7984,19.66495 l 1.575,9.16537 c 0,5e-5 -78.3352,-25.14432 -80.5657,-25.93058 0,0 0,-0.0517 0,-0.0581 0,-0.0487 -0.023,-0.16608 0,-0.29045 0.028,-0.2302 0.1453,-0.59269 0.4083,-0.92819 0.5522,-0.67289 1.8135,-1.4374 4.784,-1.62419 z m 103.2008,19.89703 c 0.9441,0.20067 14.0793,0.63411 16.51,2.66847 0,0.007 0.048,0.0487 0.058,0.0581 0,0.007 0.048,0.0482 0.058,0.0581 0,0.007 0.051,0.0482 0.058,0.0581 0.023,0.0321 0.039,0.0853 0.058,0.11603 0,0.0115 0.053,0.0477 0.058,0.0581 0.023,0.0422 0.048,0.13079 0.058,0.17415 0,0.0115 0,0.0471 0,0.0581 0,0.0115 -5e-4,0.0471 0,0.0581 -2e-4,0.024 0,0.0934 0,0.11602 0,0.0115 0,0.0466 0,0.0581 0,0.024 -0.051,0.0923 -0.058,0.11602 0,0.0115 0,0.0461 0,0.0581 -0.023,0.024 -0.044,0.0918 -0.058,0.11602 -2.0257,3.13343 -15.7516,4.29277 -15.7516,4.29277 0,0 -0.6744,-6.14008 -0.9918,-8.06321 z m 31.7956,17.86658 c 3.0586,-0.0731 5.2538,0.27521 5.7172,1.16015 0.2607,0.59979 -0.2412,1.48582 -1.6919,2.66847 -11.2534,9.17559 -35.7627,10.96353 -35.7627,10.96353 l 0,-10.09342 c 0,4.6e-4 0.046,7.6e-4 0.058,0 1.3923,-0.16446 21.5239,-4.45662 31.6791,-4.69873 z m 31.2118,9.39744 c 3.8846,-0.14647 5.5585,0.50116 6.0671,1.39219 0.042,0.0791 0.092,0.2069 0.1176,0.29045 0.037,0.15085 0.071,0.36103 0.058,0.52213 -0.1245,1.14967 -1.3773,2.52726 -2.3334,3.42245 -3.8271,3.5807 -64.8146,22.79757 -64.8146,22.79757 0,0 -0.459,-12.74667 -0.2334,-13.86407 35.6567,-10.7449 53.0967,-14.25722 61.1399,-14.56008 z m -39.4375,36.08177 c 3.8772,-0.1437 6.9093,0.0842 7.8174,0.98607 0.055,0.0597 0.1384,0.16607 0.1753,0.23227 0.023,0.0406 0.046,0.13125 0.058,0.17415 0.023,0.0434 0,0.12848 0,0.17416 0,0.0775 0.023,0.20575 0,0.29042 -0.044,0.17093 -0.1615,0.38111 -0.292,0.5801 -5.2179,5.09185 -30.5698,5.85885 -30.5698,5.85885 l 0,-6.32297 c 4.7606,-0.15962 15.3578,-1.696 22.8093,-1.97229 z m 25.3769,10.38345 c 1.2055,-0.0281 1.9404,0.16654 2.0418,0.52211 0,0.0281 0,0.0863 0,0.11602 -0.06,0.29606 -0.4149,0.74463 -1.1666,1.27615 -10.1278,7.15961 -48.1886,14.50212 -48.1886,14.50212 0,0 0.4714,-5.00359 0.7,-6.20686 1.0585,-0.0162 37.5059,-9.98773 46.612,-10.20956 z m 21.3514,7.94726 c 4.485,-0.0422 7.908,0.61594 9.8595,2.03025 0,0 0.055,-9.7e-4 0.058,0 0,0.005 0,0.0517 0,0.0581 7e-4,0.007 -4e-4,0.05 0,0.0581 -9e-4,0.0208 0,0.0932 0,0.11603 -0.1914,1.38716 -3.0422,7.91277 -13.068,10.73169 -12.5045,-1.1106 -65.5746,14.48986 -66.6237,14.73415 0,-0.005 -0.055,0.005 -0.058,0 0,-0.0208 0,-0.087 0,-0.11602 -0.028,-0.9993 0.7,-6.38093 0.7,-6.38093 18.2937,-10.87809 51.5383,-21.06662 69.1308,-21.23108 z M 200.678,535.36103 c 0.1177,-0.002 0.2261,-3.9e-4 0.3497,0 22.9561,2.46151 31.5308,11.00627 33.9537,14.44415 -4.5773,7.98697 -40.8575,-9.92534 -37.0446,-13.74794 0.4364,-0.38751 1.3346,-0.66698 2.7419,-0.69611 z m 131.5543,1.50827 c 0.9118,-0.036 1.7445,0.15085 2.3336,0.52206 0.2406,0.16008 0.4782,0.38993 0.6417,0.63808 0.2214,0.35621 0.3684,0.83837 0.4085,1.39219 -2.3982,3.68462 -14.801,2.07618 -15.5767,1.97229 0.6249,-0.22144 7.786,-4.35774 12.1929,-4.52462 z m -49.1793,24.8274 c 1.7021,-0.0699 3.1163,0.10103 3.9086,0.58003 0.097,0.0618 0.2168,0.15939 0.2915,0.23228 0.023,0.024 0.095,0.0895 0.1177,0.11602 0.032,0.0401 0.092,0.13079 0.1176,0.17415 0.023,0.0441 0.039,0.12664 0.058,0.17415 0.1453,0.43351 0.088,1.03213 -0.2916,1.74024 -3.6011,6.71411 -19.3686,4.23457 -19.3686,4.23457 l 0,-4.69871 c 0,0.001 0.055,-10e-4 0.058,0 0.8881,0.075 9.5781,-2.32628 15.1099,-2.55233 z m -92.8752,17.69269 c 4.851,-0.24351 9.0909,2.9208 13.5348,5.45268 9.9017,-2.01399 30.2188,1.56627 30.2188,1.56627 l 0,8.9333 c 0,0.007 -0.046,0.0517 -0.058,0.0581 0,0.005 -0.046,-0.005 -0.058,0 -1.8492,0.32011 -25.6596,-0.71428 -30.9769,-4.06049 -4.3374,0 -16.6158,-6.44353 -17.5602,-9.74543 0,-0.0281 -0.053,-0.0886 -0.058,-0.11603 0,-0.0408 0,-0.13401 0,-0.17415 0,-0.0281 -5e-4,-0.0902 0,-0.11625 0,-0.024 0,-0.0916 0,-0.11602 0,-0.0115 0,-0.0457 0,-0.0581 0,-0.024 0.051,-0.0927 0.058,-0.11603 0,-0.0115 0,-0.0466 0,-0.0581 1.6968,-0.89911 3.3502,-1.37243 4.9005,-1.45021 z m 104.1355,4.40867 c 3.7245,-0.19929 5.3036,0.94538 2.392,5.04673 -8.1023,11.41242 -29.0537,6.72894 -29.0537,6.72894 l -0.8751,-7.07714 c 7.39,0.28682 20.8962,-4.34289 27.5352,-4.69871 z m -78.2911,23.14458 c 8.4716,-0.39272 17.6767,2.95852 17.6767,2.95852 0.2168,0.42986 4.553,8.92907 0.7,11.77566 -0.143,0.10265 -0.3005,0.20345 -0.4668,0.29002 -4.727,2.4615 -27.3184,-1.92357 -28.6443,-10.96353 2.6584,-2.79022 6.597,-3.86891 10.7342,-4.06067 z m -87.3333,4.40867 c 7.7477,-0.46229 16.402,4.28352 17.3851,4.75668 0.023,0.005 0.051,-0.002 0.058,0 0,0.26757 -0.2918,8.58529 -0.2918,8.58529 0,0 -15.3371,-4.25122 -20.1861,-12.81986 0.9723,-0.26355 2.0105,-0.46105 3.0339,-0.52211 z m 147.5404,1.16017 c 8.6411,-0.0547 19.0807,1.96399 20.5931,4.87284 0.2861,0.5949 0.2007,1.25074 -0.3496,1.9143 -4.277,5.14559 -28.5864,0.46404 -28.5864,0.46404 l 0,-6.26481 c 2.1629,-0.62909 5.142,-0.96598 8.3424,-0.98621 z"
     id="path8" />
</svg>
